<svg id="Layer_1" data-name="Layer 1" xmlns="http://www.w3.org/2000/svg" viewBox="0 0 503.98 503.99"><defs><style>.cls-1{fill:#afad56;}</style></defs><path class="cls-1" d="M350,28c-16.16,0-27.67,8.28-37.45,14.88S294,55.09,290,56.18s-14.31.47-26.08-.36-25.9-2.12-39.9,6-19.85,21.07-25,31.68-9.82,19.79-12.77,22.75-12.32,7.61-22.93,12.77-23.41,11-31.5,25-6.6,28.13-5.77,39.89,1.26,22,.18,26.08-6.7,12.79-13.31,22.57S98,263.83,98,280s8.28,27.67,14.87,37.45S125.1,336,126.19,340s.65,14.31-.18,26.08S123.7,392,131.78,406s20.9,19.85,31.5,25,20,9.82,22.93,12.77,7.6,12.15,12.77,22.75,11,23.6,25,31.68,28.14,6.6,39.9,5.77,22-1.26,26.08-.17,12.79,6.7,22.57,13.3S333.84,532,350,532s27.67-8.28,37.45-14.88S406,504.89,410,503.81s14.31-.65,26.08.17,25.9,2.31,39.9-5.77,19.85-21.07,25-31.68,9.82-19.79,12.77-22.75,12.32-7.6,22.93-12.77,23.42-11,31.5-25,6.77-28.14,5.95-39.9-1.44-22-.36-26.08,6.71-12.79,13.31-22.57S602,296.15,602,280s-8.28-27.67-14.87-37.45S574.9,224,573.81,220s-.47-14.31.36-26.08S576.3,168,568.22,154s-20.9-19.86-31.5-25-20-9.82-22.93-12.77-7.6-12.15-12.77-22.75-11-23.59-25-31.68-28.13-6.77-39.89-6-22,1.44-26.08.36-12.79-6.7-22.57-13.3S366.16,28,350,28Zm0,33.6c2.47,0,9.67,3.11,18.55,9.1s18.77,14.29,32.73,18,26.41,1.45,37.1.7,18.69.16,20.82,1.39,6.86,7.7,11.55,17.33,9,21.63,19.25,31.85,22.22,14.56,31.86,19.25,16.09,9.41,17.32,11.55,2.15,10.14,1.4,20.83-2.86,23.14.87,37.1,11.86,23.84,17.86,32.72,9.1,16.09,9.1,18.56-3.11,9.84-9.1,18.72-14.11,18.6-17.86,32.55-1.62,26.59-.87,37.28-.16,18.51-1.4,20.64-7.69,6.86-17.32,11.56S500.22,410,490,420.18,475.45,442.4,470.76,452,461.34,468,459.2,469.18s-10.13,2.15-20.82,1.4-23.14-2.86-37.1.87-23.85,11.86-32.73,17.86-16.08,9.1-18.55,9.1-9.84-3.11-18.73-9.1-18.59-14.11-32.55-17.86-26.58-1.62-37.27-.87-18.51-.17-20.65-1.4S234,461.66,229.25,452,220,430.4,209.82,420.18,187.61,405.45,178,400.76s-15.91-9.42-17.15-11.56-2.14-10-1.39-20.64,2.86-23.32-.88-37.28-11.85-23.66-17.85-32.55-9.1-16.26-9.1-18.72,3.1-9.68,9.1-18.56,14.11-18.77,17.85-32.72,1.63-26.42.88-37.1.16-18.69,1.39-20.83S168.34,164,178,159.25s21.64-9,31.85-19.25,14.73-22.22,19.43-31.85,9.41-16.09,11.55-17.33,10-2.14,20.65-1.39,23.32,3,37.27-.7,23.67-12,32.55-18,16.26-9.1,18.73-9.1Zm-67.2,89.6a61.61,61.61,0,1,0,61.6,61.61,61.86,61.86,0,0,0-61.6-61.61Zm154.88,22.23h0a16.81,16.81,0,0,0-10,5.07L248.5,357.7h0a16.8,16.8,0,1,0,23.81,23.62l179.2-179.2a16.8,16.8,0,0,0-13.83-28.7ZM282.8,184.81a28,28,0,1,1-28,28A27.75,27.75,0,0,1,282.8,184.81Zm134.4,100.8a61.6,61.6,0,1,0,61.6,61.6A61.85,61.85,0,0,0,417.2,285.61Zm0,33.6a28,28,0,1,1-28,28A27.75,27.75,0,0,1,417.2,319.21Z" transform="translate(-98.01 -28)"/></svg>