<svg id="Layer_1" data-name="Layer 1" xmlns="http://www.w3.org/2000/svg" viewBox="0 0 455.5 441.62"><defs><style>.cls-1{fill:#afad56;}</style></defs><path class="cls-1" d="M460.15,291.14,437,266.89,321.27,377.55l-57.8-57.73-23.74,23.74,81,81Z" transform="translate(-122.25 -59.19)"/><path class="cls-1" d="M245.45,59.19h-14.9a39.2,39.2,0,0,0-39.2,39.2V104h-7.5a61.59,61.59,0,0,0-61.6,61.6V439.2a61.61,61.61,0,0,0,61.6,61.61h332.3a61.61,61.61,0,0,0,61.6-61.61V165.64a61.59,61.59,0,0,0-61.6-61.6h-7.5v-5.6h0a39.2,39.2,0,0,0-39.2-39.2h-14.9a39.2,39.2,0,0,0-39.2,39.2v5.61H284.65v-5.6h0a39.2,39.2,0,0,0-39.2-39.25ZM224.9,98.39h0a5.6,5.6,0,0,1,5.6-5.6h14.95a5.6,5.6,0,0,1,5.6,5.6v44.8a5.6,5.6,0,0,1-5.6,5.6h-14.9a5.6,5.6,0,0,1-5.6-5.6ZM544.1,439.21a28,28,0,0,1-28,28H183.85a28,28,0,0,1-28-28V250.27h388.3ZM448.9,98.39h0a5.6,5.6,0,0,1,5.6-5.6h14.95a5.6,5.6,0,0,1,5.6,5.6v44.8a5.6,5.6,0,0,1-5.6,5.6h-14.9a5.6,5.6,0,0,1-5.6-5.6Zm-33.6,39.2v5.6a39.2,39.2,0,0,0,39.2,39.2h14.95a39.2,39.2,0,0,0,39.2-39.2v-5.6h7.45a28,28,0,0,1,28,28v51H155.85v-51h0a28,28,0,0,1,28-28h7.45v5.6h0a39.2,39.2,0,0,0,39.2,39.2h14.95a39.2,39.2,0,0,0,39.2-39.2v-5.6Z" transform="translate(-122.25 -59.19)"/></svg>