<svg id="Layer_1" data-name="Layer 1" xmlns="http://www.w3.org/2000/svg" viewBox="0 0 504.01 504"><defs><style>.cls-1{fill:#afad56;}</style></defs><path class="cls-1" d="M411.6,28a78.48,78.48,0,0,0-64.75,34.3,72.62,72.62,0,0,0-114.1,88.9H114.8c-8.8,0-16.8,8-16.8,16.8V268.8c0,8.8,8,16.8,16.8,16.8h16.8V515.2c0,8.8,8,16.8,16.8,16.8H551.6c8.8,0,16.8-8,16.8-16.8V285.6h16.8c8.8,0,16.8-8,16.8-16.8V168c0-8.8-8-16.8-16.8-16.8H475.82A78.27,78.27,0,0,0,411.6,28Zm0,33.6a44.8,44.8,0,0,1,0,89.6H366.8V106.4A44.55,44.55,0,0,1,411.6,61.6ZM294,72.8A39,39,0,0,1,333.2,112v39.2H294a39.2,39.2,0,1,1,0-78.4Zm-162.4,112H333.2V252H131.6Zm235.2,0H568.4V252H366.8ZM165.2,285.6h168V498.4h-168Zm201.6,0h168V498.4h-168Z" transform="translate(-98 -28)"/></svg>