<svg id="Layer_1" data-name="Layer 1" xmlns="http://www.w3.org/2000/svg" viewBox="0 0 251.7 211.83"><defs><style>.cls-1{fill:#f7f7f5;}</style></defs><path class="cls-1" d="M728.42,520.51c-25.75,0-49.3-5.45-67.52-16-18.95-11-31.34-26.66-36.8-46.68-5.86-21.48-3.4-47.25,7.32-76.67-6.84-7.66-8.7-18.32-5.07-29.73,5.16-16.21,19.59-28.79,35.08-30.59,8.9-1,25.63.82,40.81,23.46a62.4,62.4,0,0,1,14.17-6.41,54.4,54.4,0,0,1,37.22,1.56c3.48-14.93,20.58-28.58,40.1-30.56,12.29-1.24,23.42,2.31,32.2,10.27,9.93,9,16.26,23.1,18.81,41.89,17.17,19.74,26.53,39.46,27.8,58.63,1.19,17.76-4.48,34.44-16.85,49.56-9.66,11.81-22.93,22.09-39.46,30.55a192.08,192.08,0,0,1-51.78,17.3A198.61,198.61,0,0,1,728.42,520.51Zm-63-190.82a26.62,26.62,0,0,0-2.94.17c-13.46,1.56-24,13.43-27.5,24.35-2.87,9-1.15,17.21,4.72,22.48a4.53,4.53,0,0,1,1.21,5c-20.52,54.14-12,93.92,24.53,115,24.62,14.22,60.11,18.42,97.37,11.52,36.42-6.75,68.53-23.45,85.89-44.68C872.12,434.88,868.1,401.16,837,366a4.51,4.51,0,0,1-1.1-2.44c-5.53-44.42-30.73-46.73-41.3-45.66-17.37,1.76-33.48,15.63-32.57,28a4.52,4.52,0,0,1-.49,2.5h0l-.09.17h0a4.51,4.51,0,0,1-2.21,1.92h0a4.29,4.29,0,0,1-.77.24h0a4.49,4.49,0,0,1-3.07-.45h0a45.27,45.27,0,0,0-36-3.86,50.79,50.79,0,0,0-15.63,7.75h0a4.5,4.5,0,0,1-1.84.89,4.68,4.68,0,0,1-1.79,0A4.58,4.58,0,0,1,697,353C687.88,337.7,677,329.69,665.41,329.69Z" transform="translate(-621 -308.68)"/><path class="cls-1" d="M857,385.85a45.84,45.84,0,0,0-4.71-.24c-24.07,0-43.58,18.59-43.58,41.53,0,22.3,18.44,40.49,41.58,41.49C869.48,446.71,875.47,418.3,857,385.85Z" transform="translate(-621 -308.68)"/><path class="cls-1" d="M687.65,459.89c0-22.94-19.52-41.54-43.59-41.54A45.13,45.13,0,0,0,626.14,422c-3.8,36.87,10.46,61.75,33.71,76.59C676.12,492.58,687.65,477.52,687.65,459.89Z" transform="translate(-621 -308.68)"/><circle class="cls-1" cx="43.13" cy="48.85" r="14.08"/><circle class="cls-1" cx="177.13" cy="32.43" r="14.08"/><path class="cls-1" d="M737.12,400.28c-8.7,0-17.34-7.16-25.72-21.31a3.39,3.39,0,0,1,5.84-3.46c7.34,12.4,14.56,18.61,20.85,17.93,9.62-1,17.13-17.4,19.21-23.63a3.39,3.39,0,0,1,6.44,2.15c-.36,1.08-9,26.53-24.92,28.23A16.13,16.13,0,0,1,737.12,400.28Z" transform="translate(-621 -308.68)"/></svg>